<?xml version="1.0" encoding="UTF-8" standalone="no"?>
<svg
   xmlns:dc="http://purl.org/dc/elements/1.1/"
   xmlns:cc="http://creativecommons.org/ns#"
   xmlns:rdf="http://www.w3.org/1999/02/22-rdf-syntax-ns#"
   xmlns:svg="http://www.w3.org/2000/svg"
   xmlns="http://www.w3.org/2000/svg"
   xmlns:sodipodi="http://sodipodi.sourceforge.net/DTD/sodipodi-0.dtd"
   xmlns:inkscape="http://www.inkscape.org/namespaces/inkscape"
   width="128"
   height="128"
   viewBox="0 0 128 128"
   fill="none"
   version="1.1"
   id="svg17"
   sodipodi:docname="icon.svg"
   inkscape:version="1.0.2-2 (e86c870879, 2021-01-15)">
  <metadata
     id="metadata21">
    <rdf:RDF>
      <cc:Work
         rdf:about="">
        <dc:format>image/svg+xml</dc:format>
        <dc:type
           rdf:resource="http://purl.org/dc/dcmitype/StillImage" />
        <dc:title></dc:title>
      </cc:Work>
    </rdf:RDF>
  </metadata>
  <sodipodi:namedview
     pagecolor="#ffffff"
     bordercolor="#666666"
     borderopacity="1"
     objecttolerance="10"
     gridtolerance="10"
     guidetolerance="10"
     inkscape:pageopacity="0"
     inkscape:pageshadow="2"
     inkscape:window-width="1920"
     inkscape:window-height="1017"
     id="namedview19"
     showgrid="false"
     inkscape:zoom="3.2109603"
     inkscape:cx="117.13849"
     inkscape:cy="66.965691"
     inkscape:window-x="-8"
     inkscape:window-y="-8"
     inkscape:window-maximized="1"
     inkscape:current-layer="svg17" />
  <path
     d="m 63.999696,99.799283 c 25.447478,0 46.076584,-20.629105 46.076584,-46.076582 0,-25.447174 -20.629106,-46.0762789 -46.076584,-46.0762789 -25.447234,0 -46.076348,20.6291049 -46.076348,46.0762789 0,25.447477 20.629114,46.076582 46.076348,46.076582 z"
     fill="#ffffff"
     id="path2"
     style="stroke-width:3.03405" />
  <path
     d="m 64,5.17792 c -26.810554,0 -48.544781,21.734227 -48.544781,48.544781 0,26.810675 21.734227,48.544779 48.544781,48.544779 26.810675,0 48.54478,-21.734104 48.54478,-48.544779 C 112.54478,26.912147 90.810675,5.17792 64,5.17792 Z m 0,4.936761 c 24.083976,0 43.60808,19.523983 43.60808,43.60802 0,24.083976 -19.524104,43.60808 -43.60808,43.60808 -24.084037,0 -43.60802,-19.524104 -43.60802,-43.60808 0,-24.084037 19.523983,-43.60802 43.60802,-43.60802 z"
     fill="#4000bf"
     id="path4"
     style="stroke-width:3.03405;fill:#ff6c00;fill-opacity:1" />
  <path
     fill-rule="evenodd"
     clip-rule="evenodd"
     d="m 64.548556,19.165583 c 19.085684,0 34.557512,15.471737 34.557512,34.557421 0,19.085381 -15.471828,34.557209 -34.557512,34.557209 -19.08532,0 -34.557149,-15.471828 -34.557149,-34.557209 0,-4.664546 0.924081,-9.113069 2.599209,-13.172626 2.445899,3.330779 6.390314,5.493145 10.839716,5.493145 7.422224,0 13.439046,-6.016822 13.439046,-13.439015 0,-4.449403 -2.162366,-8.393787 -5.493448,-10.839656 4.05986,-1.675159 8.508383,-2.599269 13.172626,-2.599269 z"
     fill="url(#paint0_linear)"
     id="path6"
     style="fill:url(#paint0_linear);stroke-width:3.03405" />
  <defs
     id="defs15">
    <linearGradient
       id="paint0_linear"
       x1="28.190395"
       y1="32.803684"
       x2="34.041222"
       y2="-0.34324449"
       gradientUnits="userSpaceOnUse"
       gradientTransform="matrix(3.0340488,0,0,3.0340488,15.455219,2.1438712)">
      <stop
         stop-color="#7400E1"
         id="stop10"
         style="stop-color:#ff0700;stop-opacity:1" />
      <stop
         offset="1"
         stop-color="#4000BF"
         id="stop12"
         style="stop-color:#ebff00;stop-opacity:1" />
    </linearGradient>
  </defs>
  <text
     xml:space="preserve"
     style="font-style:normal;font-weight:normal;font-size:12.9395px;line-height:1.25;font-family:sans-serif;fill:#ff0053;fill-opacity:1;stroke:none;stroke-width:0.808721"
     x="5.8922963"
     y="121.07275"
     id="text869"><tspan
       sodipodi:role="line"
       x="5.8922963"
       y="121.07275"
       id="tspan871"
       style="font-style:normal;font-variant:normal;font-weight:normal;font-stretch:normal;font-size:12.9395px;font-family:mono;-inkscape-font-specification:mono;fill:#ff0053;fill-opacity:1;stroke-width:0.808721">Global: Headers</tspan></text>
</svg>
